<svg width="20" height="20" viewBox="0 0 20 20" fill="none" xmlns="http://www.w3.org/2000/svg">
<path d="M13.69 0H13.51C11.32 0 9.25 1.21 7.98 3.25C7.17 4.55 6.86 5.87 7.05 7.28L0.89 13.37C0.32 13.93 0 14.71 0 15.5V17C0 18.65 1.35 20 3 20H4.59C5.39 20 6.14 19.69 6.71 19.12L7.27 18.56C7.53 18.3 7.73 17.98 7.85 17.64C8.19 17.52 8.5 17.32 8.77 17.06L9.27 16.56C9.53 16.3 9.73 15.98 9.85 15.64C10.19 15.52 10.5 15.32 10.77 15.06L11.27 14.56C11.56 14.27 11.78 13.91 11.89 13.53C12.24 13.42 12.55 13.22 12.82 12.96C13.05 12.99 13.27 13 13.5 13C14.64 13 15.75 12.65 16.8 11.97C18.93 10.59 20.12 8.41 19.98 6.12C19.78 2.74 17.08 0.1 13.69 0ZM15.71 10.29C14.91 10.81 14.17 11 13.49 11C13 11 12.54 10.9 12.1 10.76L11.42 11.52C11.34 11.61 11.23 11.65 11.11 11.65C10.96 11.65 10.8 11.59 10.63 11.46L9.99 11V12.79C9.99 12.92 9.94 13.05 9.84 13.14L9.34 13.64C9.29473 13.6872 9.24039 13.7247 9.18025 13.7504C9.1201 13.776 9.05539 13.7893 8.99 13.7893C8.92461 13.7893 8.8599 13.776 8.79975 13.7504C8.7396 13.7247 8.68526 13.6872 8.64 13.64L7.99 12.99V14.78C7.99 14.91 7.94 15.04 7.84 15.13L7.34 15.63C7.29473 15.6772 7.24039 15.7147 7.18025 15.7404C7.1201 15.766 7.05539 15.7793 6.99 15.7793C6.92461 15.7793 6.8599 15.766 6.79975 15.7404C6.7396 15.7147 6.68526 15.6772 6.64 15.63L5.99 14.98V16.77C5.99 16.9 5.94 17.03 5.84 17.12L5.28 17.68C5.18656 17.7727 5.07574 17.846 4.95391 17.8958C4.83207 17.9455 4.70161 17.9708 4.57 17.97H2.98C2.43 17.97 1.98 17.52 1.98 16.97V15.47C1.98055 15.3377 2.00735 15.2068 2.05885 15.0849C2.11034 14.9631 2.18551 14.8526 2.28 14.76L9.23 7.88C8.88 6.82 8.8 5.64 9.66 4.27C10.51 2.92 11.91 1.96 13.5 1.96H13.62C15.95 2.03 17.84 3.88 17.97 6.19C18.07 7.85 17.09 9.34 15.69 10.24L15.71 10.29Z" fill="#787878"/>
</svg>
