<svg width="87" height="87" viewBox="0 0 87 87" fill="none" xmlns="http://www.w3.org/2000/svg">
<path d="M43.5 0C19.5315 0 0 19.5315 0 43.5C0 67.4685 19.5315 87 43.5 87C67.4685 87 87 67.4685 87 43.5C87 19.5315 67.4685 0 43.5 0ZM43.5 21.75C51.0255 21.75 56.55 27.2745 56.55 34.8C56.55 42.3255 51.0255 47.85 43.5 47.85C35.9745 47.85 30.45 42.3255 30.45 34.8C30.45 27.2745 35.9745 21.75 43.5 21.75ZM43.5 78.3C34.6346 78.299 26.1055 74.906 19.662 68.817C23.1855 61.596 30.5805 56.55 39.15 56.55H47.85C56.4195 56.55 63.771 61.596 67.2945 68.817C60.8716 74.9109 52.3538 78.3056 43.5 78.3Z" fill="#2C2C2C"/>
</svg>
